<?plantuml 1.2026.1?><svg xmlns="http://www.w3.org/2000/svg" xmlns:xlink="http://www.w3.org/1999/xlink" contentStyleType="text/css" data-diagram-type="ACTIVITY" height="254px" preserveAspectRatio="none" style="width:215px;height:254px;background:#FFFFFF;" version="1.1" viewBox="0 0 215 254" width="215px" zoomAndPan="magnify"><defs/><g><ellipse cx="125.2461" cy="20" fill="#222222" rx="10" ry="10" style="stroke:#222222;stroke-width:1;"/><rect fill="#F1F1F1" height="33.9688" rx="12.5" ry="12.5" style="stroke:#181818;stroke-width:0.5;" width="52.584" x="98.9541" y="50"/><text fill="#000000" font-family="sans-serif" font-size="12" lengthAdjust="spacing" textLength="32.584" x="108.9541" y="71.1387">Login</text><polygon fill="#F1F1F1" points="109.1543,103.9688,141.3379,103.9688,153.3379,115.9688,141.3379,127.9688,109.1543,127.9688,97.1543,115.9688,109.1543,103.9688" style="stroke:#181818;stroke-width:0.5;"/><text fill="#000000" font-family="sans-serif" font-size="11" lengthAdjust="spacing" textLength="32.1836" x="109.1543" y="119.7769">valid?</text><text fill="#000000" font-family="sans-serif" font-size="11" lengthAdjust="spacing" textLength="19.0083" x="78.146" y="113.3745">yes</text><text fill="#000000" font-family="sans-serif" font-size="11" lengthAdjust="spacing" textLength="13.7017" x="153.3379" y="113.3745">no</text><rect fill="#F1F1F1" height="33.9688" rx="12.5" ry="12.5" style="stroke:#181818;stroke-width:0.5;" width="121.5078" x="11" y="137.9688"/><text fill="#000000" font-family="sans-serif" font-size="12" lengthAdjust="spacing" textLength="101.5078" x="21" y="159.1074">Show Dashboard</text><rect fill="#F1F1F1" height="33.9688" rx="12.5" ry="12.5" style="stroke:#181818;stroke-width:0.5;" width="52.4609" x="152.5078" y="137.9688"/><text fill="#000000" font-family="sans-serif" font-size="12" lengthAdjust="spacing" textLength="32.4609" x="162.5078" y="159.1074">Retry</text><polygon fill="#F1F1F1" points="125.2461,177.9375,137.2461,189.9375,125.2461,201.9375,113.2461,189.9375,125.2461,177.9375" style="stroke:#181818;stroke-width:0.5;"/><ellipse cx="125.2461" cy="232.9375" fill="none" rx="11" ry="11" style="stroke:#222222;stroke-width:1;"/><ellipse cx="125.2461" cy="232.9375" fill="#222222" rx="6" ry="6" style="stroke:#222222;stroke-width:1;"/><line style="stroke:#181818;stroke-width:1;" x1="125.2461" x2="125.2461" y1="30" y2="50"/><polygon fill="#181818" points="121.2461,40,125.2461,50,129.2461,40,125.2461,44" style="stroke:#181818;stroke-width:1;"/><line style="stroke:#181818;stroke-width:1;" x1="97.1543" x2="71.7539" y1="115.9688" y2="115.9688"/><line style="stroke:#181818;stroke-width:1;" x1="71.7539" x2="71.7539" y1="115.9688" y2="137.9688"/><polygon fill="#181818" points="67.7539,127.9688,71.7539,137.9688,75.7539,127.9688,71.7539,131.9688" style="stroke:#181818;stroke-width:1;"/><line style="stroke:#181818;stroke-width:1;" x1="153.3379" x2="178.7383" y1="115.9688" y2="115.9688"/><line style="stroke:#181818;stroke-width:1;" x1="178.7383" x2="178.7383" y1="115.9688" y2="137.9688"/><polygon fill="#181818" points="174.7383,127.9688,178.7383,137.9688,182.7383,127.9688,178.7383,131.9688" style="stroke:#181818;stroke-width:1;"/><line style="stroke:#181818;stroke-width:1;" x1="71.7539" x2="71.7539" y1="171.9375" y2="189.9375"/><line style="stroke:#181818;stroke-width:1;" x1="71.7539" x2="113.2461" y1="189.9375" y2="189.9375"/><polygon fill="#181818" points="103.2461,185.9375,113.2461,189.9375,103.2461,193.9375,107.2461,189.9375" style="stroke:#181818;stroke-width:1;"/><line style="stroke:#181818;stroke-width:1;" x1="178.7383" x2="178.7383" y1="171.9375" y2="189.9375"/><line style="stroke:#181818;stroke-width:1;" x1="178.7383" x2="137.2461" y1="189.9375" y2="189.9375"/><polygon fill="#181818" points="147.2461,185.9375,137.2461,189.9375,147.2461,193.9375,143.2461,189.9375" style="stroke:#181818;stroke-width:1;"/><line style="stroke:#181818;stroke-width:1;" x1="125.2461" x2="125.2461" y1="83.9688" y2="103.9688"/><polygon fill="#181818" points="121.2461,93.9688,125.2461,103.9688,129.2461,93.9688,125.2461,97.9688" style="stroke:#181818;stroke-width:1;"/><line style="stroke:#181818;stroke-width:1;" x1="125.2461" x2="125.2461" y1="201.9375" y2="221.9375"/><polygon fill="#181818" points="121.2461,211.9375,125.2461,221.9375,129.2461,211.9375,125.2461,215.9375" style="stroke:#181818;stroke-width:1;"/><?plantuml-src 7San3e0W3030lQ_e25-0mSNHILzGGnKIGWrjDFnUutgdHjqWB7AM5g4Sw6wg9KqUBND3DrWz88OjouCpQTw5Ueh0LHbTapzNjZu-QwaSe2RN2m00?></g></svg>